<svg version="1.1" viewBox="0.0 0.0 1600.0 400.0" fill="none" stroke="none" stroke-linecap="square" stroke-miterlimit="10" xmlns:xlink="http://www.w3.org/1999/xlink" xmlns="http://www.w3.org/2000/svg"><clipPath id="p.0"><path d="m0 0l1600.0 0l0 400.0l-1600.0 0l0 -400.0z" clip-rule="nonzero"/></clipPath><g clip-path="url(#p.0)"><path fill="#000000" fill-opacity="0.0" d="m0 0l1600.0 0l0 400.0l-1600.0 0z" fill-rule="evenodd"/><path fill="#000000" fill-opacity="0.0" d="m174.71916 138.2231l1297.4489 0l0 180.97636l-1297.4489 0z" fill-rule="evenodd"/><path fill="#d67219" d="m194.78166 275.22308l0 -93.32811l45.609375 0q17.593735 0 26.45311 6.671875q8.875 6.65625 8.875 17.59375q0 7.328125 -3.609375 12.734375q-3.59375 5.390625 -9.859375 8.328125q-6.2656097 2.9375 -14.406235 2.9375l2.546875 -5.46875q8.79686 0 15.593735 2.875q6.796875 2.859375 10.59375 8.46875q3.796875 5.59375 3.796875 13.71875q0 11.999985 -9.46875 18.73436q-9.453125 6.734375 -27.85936 6.734375l-48.265625 0zm21.46875 -16.265625l25.203125 0q8.390625 0 12.71875 -2.734375q4.3437347 -2.7343597 4.3437347 -8.73436q0 -5.859375 -4.3437347 -8.71875q-4.328125 -2.875 -12.71875 -2.875l-26.796875 0l0 -15.734375l23.0625 0q7.859375 0 12.0625 -2.734375q4.203125 -2.734375 4.203125 -8.328125q0 -5.46875 -4.203125 -8.203125q-4.203125 -2.734375 -12.0625 -2.734375l-21.46875 0l0 60.79686zm79.05858 16.265625l0 -71.73436l20.8125 0l0 71.73436l-20.8125 0zm10.40625 -81.73436q-5.734375 0 -9.34375 -3.328125q-3.59375 -3.328125 -3.59375 -8.265625q0 -4.9375 3.59375 -8.265625q3.609375 -3.328125 9.34375 -3.328125q5.734375 0 9.328125 3.140625q3.609375 3.125 3.609375 8.046875q0 5.203125 -3.546875 8.609375q-3.53125 3.390625 -9.390625 3.390625zm59.069275 82.79686q-12.671875 0 -19.734375 -6.453125q-7.0625 -6.46875 -7.0625 -19.281235l0 -62.921875l20.796875 0l0 62.65625q0 4.53125 2.390625 6.9999847q2.40625 2.46875 6.53125 2.46875q4.9375 0 8.40625 -2.65625l5.59375 14.65625q-3.1875 2.265625 -7.65625 3.40625q-4.46875 1.125 -9.265625 1.125zm-37.875 -56.79686l0 -16.0l49.734375 0l0 16.0l-49.734375 0zm98.934235 56.79686q-11.59375 0 -20.671875 -4.734375q-9.0625 -4.734375 -14.203125 -13.125q-5.125 -8.406235 -5.125 -19.062485q0 -10.8125 5.125 -19.140625q5.140625 -8.328125 14.203125 -13.0625q9.078125 -4.734375 20.671875 -4.734375q11.328125 0 19.71875 4.734375q8.40625 4.734375 12.40625 13.53125l-16.125 8.671875q-2.796875 -5.078125 -7.0 -7.46875q-4.203125 -2.40625 -9.140625 -2.40625q-5.328125 0 -9.59375 2.40625q-4.265625 2.390625 -6.734375 6.796875q-2.46875 4.40625 -2.46875 10.671875q0 6.265625 2.46875 10.671875q2.46875 4.390625 6.734375 6.7968597q4.265625 2.390625 9.59375 2.390625q4.9375 0 9.140625 -2.328125q4.203125 -2.3437347 7.0 -7.5312347l16.125 8.79686q-4.0 8.65625 -12.40625 13.390625q-8.390625 4.734375 -19.71875 4.734375zm77.33237 0q-11.46875 0 -20.34375 -4.796875q-8.859375 -4.796875 -14.0 -13.125q-5.125 -8.343735 -5.125 -18.999985q0 -10.8125 5.125 -19.140625q5.140625 -8.328125 14.0 -13.0625q8.875 -4.734375 20.34375 -4.734375q11.3281555 0 20.265656 4.734375q8.9375 4.734375 14.0 13.0q5.0625 8.265625 5.0625 19.203125q0 10.65625 -5.0625 18.999985q-5.0625 8.328125 -14.0 13.125q-8.9375 4.796875 -20.265656 4.796875zm0 -17.0625q5.203125 0 9.3281555 -2.390625q4.140625 -2.4062347 6.53125 -6.8749847q2.40625 -4.46875 2.40625 -10.59375q0 -6.265625 -2.40625 -10.671875q-2.390625 -4.40625 -6.53125 -6.796875q-4.1250305 -2.40625 -9.3281555 -2.40625q-5.203125 0 -9.34375 2.40625q-4.125 2.390625 -6.59375 6.796875q-2.46875 4.40625 -2.46875 10.671875q0 6.125 2.46875 10.59375q2.46875 4.46875 6.59375 6.8749847q4.140625 2.390625 9.34375 2.390625zm53.18936 16.0l0 -71.73436l20.8125 0l0 71.73436l-20.8125 0zm10.40625 -81.73436q-5.734375 0 -9.34375 -3.328125q-3.59375 -3.328125 -3.59375 -8.265625q0 -4.9375 3.59375 -8.265625q3.609375 -3.328125 9.34375 -3.328125q5.734375 0 9.328125 3.140625q3.609375 3.125 3.609375 8.046875q0 5.203125 -3.546875 8.609375q-3.53125 3.390625 -9.390625 3.390625zm29.725525 81.73436l0 -71.73436l19.875 0l0 19.875l-3.734375 -6.0q3.859375 -7.203125 11.0625 -11.0625q7.203125 -3.875 16.40625 -3.875q8.53125 0 15.265625 3.40625q6.734375 3.390625 10.59375 10.390625q3.875 7.0 3.875 17.9375l0 41.062485l-20.8125 0l0 -37.85936q0 -8.671875 -3.796875 -12.796875q-3.796875 -4.140625 -10.734375 -4.140625q-4.921875 0 -8.859375 2.0625q-3.9375 2.0625 -6.140625 6.34375q-2.1875 4.265625 -2.1875 10.921875l0 35.468735l-20.8125 0zm131.33044 0l0 -93.32811l42.40625 0q15.1875 0 26.78125 5.796875q11.609375 5.796875 18.140625 16.203125q6.53125 10.390625 6.53125 24.65625q0 14.140625 -6.53125 24.609375q-6.53125 10.468735 -18.140625 16.26561q-11.59375 5.796875 -26.78125 5.796875l-42.40625 0zm21.609375 -17.734375l19.71875 0q9.34375 0 16.203125 -3.5312347q6.875 -3.53125 10.671875 -10.0625q3.796875 -6.53125 3.796875 -15.34375q0 -8.921875 -3.796875 -15.390625q-3.796875 -6.46875 -10.671875 -10.0q-6.859375 -3.53125 -16.203125 -3.53125l-19.71875 0l0 57.85936zm131.05096 17.734375l0 -14.0l-1.328125 -3.0625l0 -25.062485q0 -6.671875 -4.078125 -10.40625q-4.0625 -3.734375 -12.453125 -3.734375q-5.734375 0 -11.265625 1.796875q-5.53125 1.796875 -9.40625 4.875l-7.46875 -14.53125q5.875 -4.140625 14.140625 -6.40625q8.265625 -2.265625 16.796875 -2.265625q16.40625 0 25.46875 7.734375q9.0625 7.734375 9.0625 24.125l0 40.937485l-19.46875 0zm-21.859375 1.0625q-8.40625 0 -14.40625 -2.859375q-6.0 -2.875 -9.203125 -7.796875q-3.1875 -4.9375 -3.1875 -11.07811q0 -6.390625 3.125 -11.1875q3.140625 -4.8125 9.9375 -7.53125q6.796875 -2.734375 17.734375 -2.734375l19.0625 0l0 12.125l-16.796875 0q-7.328125 0 -10.0625 2.40625q-2.734375 2.390625 -2.734375 6.0q0 3.9999847 3.125 6.3281097q3.140625 2.328125 8.609375 2.328125q5.1875 0 9.3125 -2.453125q4.140625 -2.46875 6.015625 -7.2812347l3.203125 9.60936q-2.265625 6.921875 -8.265625 10.53125q-6.0 3.59375 -15.46875 3.59375zm89.46661 0q-12.671875 0 -19.734375 -6.453125q-7.0625 -6.46875 -7.0625 -19.281235l0 -62.921875l20.796875 0l0 62.65625q0 4.53125 2.390625 6.9999847q2.40625 2.46875 6.53125 2.46875q4.9375 0 8.40625 -2.65625l5.59375 14.65625q-3.1875 2.265625 -7.65625 3.40625q-4.46875 1.125 -9.265625 1.125zm-37.875 -56.79686l0 -16.0l49.734375 0l0 16.0l-49.734375 0zm108.12903 55.73436l0 -14.0l-1.328125 -3.0625l0 -25.062485q0 -6.671875 -4.078125 -10.40625q-4.0625 -3.734375 -12.453125 -3.734375q-5.734375 0 -11.265625 1.796875q-5.53125 1.796875 -9.40625 4.875l-7.46875 -14.53125q5.875 -4.140625 14.140625 -6.40625q8.265625 -2.265625 16.796875 -2.265625q16.40625 0 25.468689 7.734375q9.0625 7.734375 9.0625 24.125l0 40.937485l-19.468689 0zm-21.859375 1.0625q-8.40625 0 -14.40625 -2.859375q-6.0 -2.875 -9.203125 -7.796875q-3.1875 -4.9375 -3.1875 -11.07811q0 -6.390625 3.125 -11.1875q3.140625 -4.8125 9.9375 -7.53125q6.796875 -2.734375 17.734375 -2.734375l19.0625 0l0 12.125l-16.796875 0q-7.328125 0 -10.0625 2.40625q-2.734375 2.390625 -2.734375 6.0q0 3.9999847 3.125 6.3281097q3.140625 2.328125 8.609375 2.328125q5.1875 0 9.3125 -2.453125q4.140625 -2.46875 6.015625 -7.2812347l3.203125 9.60936q-2.265625 6.921875 -8.265625 10.53125q-6.0 3.59375 -15.46875 3.59375zm99.323425 -1.0625l0 -93.32811l21.609375 0l0 75.73436l46.796875 0l0 17.59375l-68.40625 0zm123.59485 0l0 -14.0l-1.328125 -3.0625l0 -25.062485q0 -6.671875 -4.078125 -10.40625q-4.0625 -3.734375 -12.453125 -3.734375q-5.734375 0 -11.265625 1.796875q-5.53125 1.796875 -9.40625 4.875l-7.46875 -14.53125q5.875 -4.140625 14.140625 -6.40625q8.265625 -2.265625 16.796875 -2.265625q16.40625 0 25.46875 7.734375q9.0625 7.734375 9.0625 24.125l0 40.937485l-19.46875 0zm-21.859375 1.0625q-8.40625 0 -14.40625 -2.859375q-6.0 -2.875 -9.203125 -7.796875q-3.1875 -4.9375 -3.1875 -11.07811q0 -6.390625 3.125 -11.1875q3.140625 -4.8125 9.9375 -7.53125q6.796875 -2.734375 17.734375 -2.734375l19.0625 0l0 12.125l-16.796875 0q-7.328125 0 -10.0625 2.40625q-2.734375 2.390625 -2.734375 6.0q0 3.9999847 3.125 6.3281097q3.140625 2.328125 8.609375 2.328125q5.1875 0 9.3125 -2.453125q4.140625 -2.46875 6.015625 -7.2812347l3.203125 9.60936q-2.265625 6.921875 -8.265625 10.53125q-6.0 3.59375 -15.46875 3.59375zm102.529175 0q-9.46875 0 -16.265625 -4.0q-6.796875 -4.0 -10.40625 -12.1875q-3.59375 -8.20311 -3.59375 -20.73436q0 -12.671875 3.796875 -20.796875q3.796875 -8.140625 10.59375 -12.140625q6.8125 -4.0 15.875 -4.0q10.125 0 18.1875 4.53125q8.078125 4.53125 12.8125 12.796875q4.734375 8.265625 4.734375 19.609375q0 11.1875 -4.734375 19.45311q-4.734375 8.265625 -12.8125 12.875q-8.0625 4.59375 -18.1875 4.59375zm-42.40625 -1.0625l0 -98.92186l20.8125 0l0 41.71875l-1.34375 21.203125l0.40625 21.32811l0 14.671875l-19.875 0zm38.796875 -16.0q5.203125 0 9.265625 -2.390625q4.078125 -2.4062347 6.546875 -6.8749847q2.46875 -4.46875 2.46875 -10.59375q0 -6.265625 -2.46875 -10.671875q-2.46875 -4.40625 -6.546875 -6.796875q-4.0625 -2.40625 -9.265625 -2.40625q-5.1875 0 -9.328125 2.40625q-4.125 2.390625 -6.53125 6.796875q-2.40625 4.40625 -2.40625 10.671875q0 6.125 2.40625 10.59375q2.40625 4.46875 6.53125 6.8749847q4.140625 2.390625 9.328125 2.390625zm77.34021 17.0625q-9.203125 0 -17.671875 -2.1875q-8.46875 -2.203125 -13.390625 -5.546875l6.921875 -14.92186q4.9375 3.0624847 11.671875 4.9999847q6.734375 1.921875 13.265625 1.921875q7.203125 0 10.203125 -1.71875q3.0 -1.734375 3.0 -4.8124847q0 -2.53125 -2.34375 -3.796875q-2.328125 -1.265625 -6.203125 -1.921875q-3.859375 -0.671875 -8.46875 -1.34375q-4.59375 -0.671875 -9.265625 -1.796875q-4.65625 -1.140625 -8.53125 -3.40625q-3.859375 -2.265625 -6.1875 -6.125q-2.328125 -3.875 -2.328125 -10.0q0 -6.796875 3.921875 -12.0q3.9375 -5.203125 11.40625 -8.203125q7.46875 -3.0 17.859375 -3.0q7.34375 0 14.9375 1.609375q7.59375 1.59375 12.671875 4.65625l-6.9375 14.796875q-5.203125 -3.0625 -10.46875 -4.1875q-5.265625 -1.140625 -10.203125 -1.140625q-6.921875 0 -10.125 1.875q-3.203125 1.859375 -3.203125 4.796875q0 2.65625 2.328125 4.0q2.34375 1.328125 6.203125 2.125q3.875 0.796875 8.46875 1.40625q4.59375 0.59375 9.265625 1.796875q4.671875 1.203125 8.46875 3.40625q3.796875 2.1875 6.1875 6.0q2.40625 3.796875 2.40625 9.921875q0 6.6718597 -4.0 11.812485q-4.0 5.125 -11.53125 8.0625q-7.53125 2.921875 -18.328125 2.921875z" fill-rule="nonzero"/><path fill="#000000" fill-opacity="0.0" d="m674.55646 307.8609l748.7874 -4.661438" fill-rule="evenodd"/><path stroke="#d67219" stroke-width="12.0" stroke-linejoin="round" stroke-linecap="butt" d="m674.55646 307.8609l748.7874 -4.661438" fill-rule="evenodd"/><path fill="#d67219" d="m902.28613 119.76402c0 -13.333115 12.000183 -24.141739 26.803162 -24.141739c14.8029785 0 26.803162 10.808624 26.803162 24.141739c0 13.333115 -12.000183 24.141724 -26.803162 24.141724c-14.8029785 0 -26.803162 -10.808609 -26.803162 -24.141724z" fill-rule="evenodd"/><path stroke="#595959" stroke-width="1.0" stroke-linejoin="round" stroke-linecap="butt" d="m902.28613 119.76402c0 -13.333115 12.000183 -24.141739 26.803162 -24.141739c14.8029785 0 26.803162 10.808624 26.803162 24.141739c0 13.333115 -12.000183 24.141724 -26.803162 24.141724c-14.8029785 0 -26.803162 -10.808609 -26.803162 -24.141724z" fill-rule="evenodd"/><path fill="#4a86e8" d="m1083.9728 139.91472c0 -13.333115 12.000122 -24.141739 26.8031 -24.141739c14.8029785 0 26.803223 10.808624 26.803223 24.141739c0 13.333099 -12.000244 24.141724 -26.803223 24.141724c-14.8029785 0 -26.8031 -10.808624 -26.8031 -24.141724z" fill-rule="evenodd"/><path stroke="#595959" stroke-width="1.0" stroke-linejoin="round" stroke-linecap="butt" d="m1083.9728 139.91472c0 -13.333115 12.000122 -24.141739 26.8031 -24.141739c14.8029785 0 26.803223 10.808624 26.803223 24.141739c0 13.333099 -12.000244 24.141724 -26.803223 24.141724c-14.8029785 0 -26.8031 -10.808624 -26.8031 -24.141724z" fill-rule="evenodd"/><path fill="#6aa84f" d="m1296.2274 65.112854c0 -13.333111 12.000122 -24.141735 26.8031 -24.141735c14.8029785 0 26.803223 10.808624 26.803223 24.141735c0 13.333107 -12.000244 24.141731 -26.803223 24.141731c-14.8029785 0 -26.8031 -10.808624 -26.8031 -24.141731z" fill-rule="evenodd"/><path stroke="#595959" stroke-width="1.0" stroke-linejoin="round" stroke-linecap="butt" d="m1296.2274 65.112854c0 -13.333111 12.000122 -24.141735 26.8031 -24.141735c14.8029785 0 26.803223 10.808624 26.803223 24.141735c0 13.333107 -12.000244 24.141731 -26.803223 24.141731c-14.8029785 0 -26.8031 -10.808624 -26.8031 -24.141731z" fill-rule="evenodd"/><path fill="#000000" fill-opacity="0.0" d="m955.89246 119.76402l128.09448 20.15747" fill-rule="evenodd"/><path stroke="#595959" stroke-width="1.0" stroke-linejoin="round" stroke-linecap="butt" d="m955.89246 119.76402l128.09448 20.15747" fill-rule="evenodd"/><path fill="#000000" fill-opacity="0.0" d="m1137.5791 139.91472l166.48816 -57.732292" fill-rule="evenodd"/><path stroke="#595959" stroke-width="1.0" stroke-linejoin="round" stroke-linecap="butt" d="m1137.5791 139.91472l166.48816 -57.732292" fill-rule="evenodd"/></g></svg>